<svg width="116" height="26" viewBox="0 0 116 26" fill="none" xmlns="http://www.w3.org/2000/svg">
<path d="M0.764 0.462108H9.692V19.2541H23.084V25.6621H0.8L0.764 0.462108ZM47.051 0.462108C47.963 0.462108 48.827 0.642107 49.643 1.00211C50.459 1.33811 51.167 1.80611 51.767 2.40611C52.367 3.00611 52.835 3.71411 53.171 4.53011C53.531 5.34611 53.711 6.21011 53.711 7.12211V19.0021C53.711 19.9141 53.531 20.7781 53.171 21.5941C52.835 22.4101 52.367 23.1181 51.767 23.7181C51.167 24.3181 50.459 24.7981 49.643 25.1581C48.827 25.4941 47.963 25.6621 47.051 25.6621H31.643C30.731 25.6621 29.867 25.4941 29.051 25.1581C28.235 24.7981 27.527 24.3181 26.927 23.7181C26.327 23.1181 25.847 22.4101 25.487 21.5941C25.151 20.7781 24.983 19.9141 24.983 19.0021V7.12211C24.983 6.21011 25.151 5.34611 25.487 4.53011C25.847 3.71411 26.327 3.00611 26.927 2.40611C27.527 1.80611 28.235 1.33811 29.051 1.00211C29.867 0.642107 30.731 0.462108 31.643 0.462108H47.051ZM42.731 19.2541C43.283 19.2541 43.763 19.1101 44.171 18.8221C44.579 18.5341 44.783 18.1861 44.783 17.7781V8.38211C44.783 7.97411 44.579 7.62611 44.171 7.33811C43.763 7.05011 43.283 6.90611 42.731 6.90611H35.999C35.447 6.90611 34.967 7.05011 34.559 7.33811C34.151 7.62611 33.947 7.97411 33.947 8.38211V17.7781C33.947 18.1861 34.151 18.5341 34.559 18.8221C34.967 19.1101 35.447 19.2541 35.999 19.2541H42.731ZM82.9024 9.78611V25.5901H76.2064V23.3941C75.5824 24.0901 74.8504 24.6421 74.0104 25.0501C73.1704 25.4341 72.2584 25.6261 71.2744 25.6261H63.8584C62.9464 25.6261 62.0824 25.4581 61.2664 25.1221C60.4744 24.7621 59.7784 24.2821 59.1784 23.6821C58.5784 23.0581 58.0984 22.3501 57.7384 21.5581C57.4024 20.7421 57.2344 19.8781 57.2344 18.9661V7.12211C57.2344 6.21011 57.4024 5.34611 57.7384 4.53011C58.0984 3.71411 58.5784 3.00611 59.1784 2.40611C59.7784 1.80611 60.4864 1.33811 61.3024 1.00211C62.1184 0.642107 62.9824 0.462108 63.8944 0.462108H82.9744V6.87011H68.2144C67.6624 6.87011 67.1824 7.01411 66.7744 7.30211C66.3664 7.59011 66.1624 7.93811 66.1624 8.34611V17.7421C66.1624 18.1501 66.3664 18.4981 66.7744 18.7861C67.1824 19.0741 67.6624 19.2181 68.2144 19.2181H74.1544C74.7064 19.2181 75.1864 19.0741 75.5944 18.7861C76.0024 18.4981 76.2064 18.1501 76.2064 17.7421V16.2661H69.5104V9.85811L82.9024 9.78611ZM108.512 0.462108C109.424 0.462108 110.288 0.642107 111.104 1.00211C111.92 1.33811 112.628 1.80611 113.228 2.40611C113.828 3.00611 114.296 3.71411 114.632 4.53011C114.992 5.34611 115.172 6.21011 115.172 7.12211V19.0021C115.172 19.9141 114.992 20.7781 114.632 21.5941C114.296 22.4101 113.828 23.1181 113.228 23.7181C112.628 24.3181 111.92 24.7981 111.104 25.1581C110.288 25.4941 109.424 25.6621 108.512 25.6621H93.1039C92.1919 25.6621 91.3279 25.4941 90.5119 25.1581C89.6959 24.7981 88.9879 24.3181 88.3879 23.7181C87.7879 23.1181 87.3079 22.4101 86.9479 21.5941C86.6119 20.7781 86.4439 19.9141 86.4439 19.0021V7.12211C86.4439 6.21011 86.6119 5.34611 86.9479 4.53011C87.3079 3.71411 87.7879 3.00611 88.3879 2.40611C88.9879 1.80611 89.6959 1.33811 90.5119 1.00211C91.3279 0.642107 92.1919 0.462108 93.1039 0.462108H108.512ZM104.192 19.2541C104.744 19.2541 105.224 19.1101 105.632 18.8221C106.04 18.5341 106.244 18.1861 106.244 17.7781V8.38211C106.244 7.97411 106.04 7.62611 105.632 7.33811C105.224 7.05011 104.744 6.90611 104.192 6.90611H97.4599C96.9079 6.90611 96.4279 7.05011 96.0199 7.33811C95.6119 7.62611 95.4079 7.97411 95.4079 8.38211V17.7781C95.4079 18.1861 95.6119 18.5341 96.0199 18.8221C96.4279 19.1101 96.9079 19.2541 97.4599 19.2541H104.192Z" fill="#FF9130"/>
</svg>
