<svg width="24" height="25" viewBox="0 0 24 25" fill="none" xmlns="http://www.w3.org/2000/svg">
<g clip-path="url(#clip0_1_104)">
<path d="M12 1.43553C12.163 1.43615 12.3234 1.47689 12.4669 1.55415C12.6104 1.63141 12.7327 1.74281 12.823 1.87853L12.89 1.99453L15.742 7.77553L22.122 8.70053C22.863 8.80853 23.202 9.64053 22.825 10.2265L22.755 10.3215L22.677 10.4075L18.053 14.9065L19.143 21.2615C19.1714 21.4273 19.1576 21.5976 19.1028 21.7566C19.048 21.9156 18.9541 22.0582 18.8296 22.1713C18.7051 22.2844 18.5542 22.3644 18.3906 22.4037C18.2271 22.4431 18.0563 22.4406 17.894 22.3965L17.793 22.3615L17.692 22.3155L11.999 19.3155L6.29303 22.3155C6.18803 22.3705 6.08103 22.4055 5.97303 22.4215L5.86703 22.4315C5.72746 22.4366 5.58837 22.4125 5.45865 22.3608C5.32894 22.309 5.21146 22.2307 5.11375 22.131C5.01603 22.0312 4.94023 21.9121 4.89121 21.7813C4.84218 21.6505 4.821 21.511 4.82903 21.3715L4.84203 21.2615L5.93203 14.9065L1.30903 10.4065C1.18948 10.2901 1.10095 10.1456 1.05147 9.98623C1.002 9.82685 0.993154 9.65762 1.02575 9.49395C1.05834 9.33029 1.13134 9.17736 1.2381 9.0491C1.34486 8.92083 1.482 8.82129 1.63703 8.75953L1.75003 8.72353L1.86403 8.70053L8.24303 7.77553L11.096 1.99553C11.1756 1.82414 11.3036 1.67979 11.4642 1.58028C11.6249 1.48077 11.8111 1.43045 12 1.43553ZM12 4.70953V17.1855C12.0806 17.1855 12.1608 17.1953 12.239 17.2145L12.354 17.2505L12.466 17.3005L16.829 19.5995L15.993 14.7265C15.9518 14.4857 16.0002 14.2381 16.129 14.0305L16.199 13.9315L16.281 13.8415L19.827 10.3885L14.936 9.68053C14.6943 9.64544 14.4737 9.52308 14.316 9.33653L14.243 9.23953L14.183 9.13353L12 4.70953Z" fill="#F99253"/>
</g>
<defs>
<clipPath id="clip0_1_104">
<rect width="24" height="24" fill="white" transform="translate(0 0.435547)"/>
</clipPath>
</defs>
</svg>
