<svg width="24" height="25" viewBox="0 0 24 25" fill="none" xmlns="http://www.w3.org/2000/svg">
<g clip-path="url(#clip0_1_100)">
<path d="M8.24301 7.77553L1.86301 8.70053L1.75001 8.72353C1.57895 8.76894 1.423 8.85894 1.2981 8.98433C1.1732 9.10972 1.08381 9.26602 1.03907 9.43726C0.994331 9.60849 0.995837 9.78854 1.04344 9.959C1.09104 10.1295 1.18303 10.2842 1.31001 10.4075L5.93201 14.9065L4.84201 21.2615L4.82901 21.3715C4.81854 21.5485 4.85528 21.725 4.93546 21.883C5.01564 22.0411 5.13639 22.175 5.28535 22.271C5.4343 22.3671 5.6061 22.4218 5.78316 22.4296C5.96022 22.4375 6.13617 22.3981 6.29301 22.3155L11.999 19.3155L17.692 22.3155L17.792 22.3615C17.9571 22.4265 18.1365 22.4465 18.3118 22.4193C18.4871 22.3921 18.652 22.3188 18.7896 22.2068C18.9272 22.0948 19.0326 21.9483 19.0948 21.7822C19.1571 21.6161 19.1741 21.4364 19.144 21.2615L18.053 14.9065L22.677 10.4065L22.755 10.3215C22.8664 10.1843 22.9395 10.02 22.9667 9.84533C22.994 9.67067 22.9744 9.49191 22.9101 9.32726C22.8458 9.16261 22.7389 9.01796 22.6005 8.90804C22.4621 8.79813 22.297 8.72687 22.122 8.70153L15.742 7.77553L12.89 1.99553C12.8075 1.82806 12.6797 1.68705 12.5212 1.58843C12.3627 1.48982 12.1797 1.43756 11.993 1.43756C11.8063 1.43756 11.6233 1.48982 11.4648 1.58843C11.3063 1.68705 11.1785 1.82806 11.096 1.99553L8.24301 7.77553Z" fill="#F99253"/>
</g>
<defs>
<clipPath id="clip0_1_100">
<rect width="24" height="24" fill="white" transform="translate(0 0.435547)"/>
</clipPath>
</defs>
</svg>
